<svg id="Capa_1" data-name="Capa 1" xmlns="http://www.w3.org/2000/svg" viewBox="0 0 201.9 209.08"><title>kids</title><path d="M-351.52,446.24c-1.87-1.49-3.62-3-5.45-4.32-.91-.68-2-.48-3.15-.45-.58.93-1.72,1.32-2.29,2.32a8.72,8.72,0,0,0-1.19,6.61c.38,1.71,1.08,3.26,1.54,4.91a9.39,9.39,0,0,0,3,4.25,5,5,0,0,0,2,1.45c.52.14.9,1,1.2,1.59a1.49,1.49,0,0,1-.7,1.86c-1.11.46-2.23.85-3.43.1a6.63,6.63,0,0,0-1.77-.53c-.2,0-.48,0-.6-.13a3.54,3.54,0,0,0-2.31-1.4c-.16-1.15-1.73-.48-2-1.54-1.72-.49-2.05-2.21-2.83-3.45-.35-.56-.5-1.38-.88-2.06s-.38-1.32-1.21-1.71c-.56-.26-.8-1.13-1.3-1.62a23,23,0,0,0-1.83-1.43c-1.12-.89-2.23-1.8-3.3-2.66.16-1.19-.3-2.29.78-3.19.64-.54,1-1.37,1.85-1.8s1.58-1.15,2.45-1.56,1.42-1.38,2.54-1.39a1.09,1.09,0,0,0,.79-.64c.34-1.33,1.5-2,2.2-3,.16-.23.45-.45.47-.69.13-1.73,1.53-2.76,2.23-4.17,1.06-.33,1.08-1.45,1.66-2.15a20.43,20.43,0,0,0,1.85-2.34,33.47,33.47,0,0,1,3.22-4.39c1.32-1.59,2.15-3.58,3.85-4.85.22-1.19,1.36-1.64,2.06-2.4,2.23-2.44,4.1-5.19,6.47-7.51.52-.5.69-1.33,1.13-2,1.22-1.71,2.5-3.39,3.73-5.09a7.27,7.27,0,0,0,.39-.95,6.79,6.79,0,0,1,.89-1.61,8,8,0,0,0,1.78-3.26c.32-1,1.48-1.72,1.34-3,1.45-1.46,1.51-3.5,2.17-5.29a3.9,3.9,0,0,0,.46-2.25.66.66,0,0,1,0-.44,11.25,11.25,0,0,0,1-4.46,17.16,17.16,0,0,1,.82-3.64,11.35,11.35,0,0,0,.36-3.82c0-2.07,0-4.14,0-6.2,0-1.12.34-2.24.4-3.36a3.39,3.39,0,0,0-.45-1.27,25.35,25.35,0,0,0-3.28,0c-1.71.26-3.19-.45-4.72-.93a1.86,1.86,0,0,1-.81-.67c-.32-.45-.56-.95-.92-1.57.93-1.08.59-2.09-.56-3a3.6,3.6,0,0,1-1.16-2.82,16.08,16.08,0,0,1,1.14-7.93,1.9,1.9,0,0,0,.15-.82,14.2,14.2,0,0,1,.85-3.85,23.93,23.93,0,0,0,1-4.93,12.3,12.3,0,0,1,.83-2.51q.92-3.06,1.78-6.13a48.36,48.36,0,0,1,2.68-7.08,12.75,12.75,0,0,1,1.71-3.29,15.75,15.75,0,0,1,4.38-3.83,25.91,25.91,0,0,0,4.3-3,21.7,21.7,0,0,1,5.4-3.56,4.66,4.66,0,0,0,2.31-2.34c1.35-2.68,2.75-5.35,4-8.09.46-1,1.3-1.73,1.7-2.8a6.65,6.65,0,0,0,.54-2.86l-2.42-2.43h-3.77a4.17,4.17,0,0,0-2.67-4.5,6.29,6.29,0,0,0-.91-4.39c-.52-.76-.72-1.63-1.23-2.38a3.67,3.67,0,0,1-.52-2.23c.06-2.13.06-4.28,0-6.41a3.41,3.41,0,0,1,.95-2.49,20.17,20.17,0,0,1,4.05-3.52,17.37,17.37,0,0,1,4-1.51,6.06,6.06,0,0,0,2.89-1.54c.67-.79,1.62-.78,2.44-1.1.64-.24,1.47,0,2.07-.33s1.48.23,2-.56c.12-.17.7,0,1.07,0a50.79,50.79,0,0,0,5.09,0c1.71-.17,3.17.56,4.72,1a3.07,3.07,0,0,1,1.66,1.16,2,2,0,0,0,1.82,1c.81,0,1.17.36,1.41,1.23l-1.86.19c0,.33-.13.75,0,1,.39.65.9,1.24,1.45,2-1.15,1-.85,2.42-1.3,3.64,0,.12.1.31.14.47.14.67.78,1.18.6,2,0,.2.2.49.34.72.25.42.7.8.75,1.23a2.9,2.9,0,0,0,2.21,2.54c1.12.29,1,1.27,1.65,1.83l-1.32,2.06.5.84c-.58.52-1,1.28-1.68,1.43-1.37.34-1.14,1.24-1.13,2.33h2.81c-1,1.73-.46,3.41-.64,5.11a4.36,4.36,0,0,1-2.54,1.14,26.43,26.43,0,0,1-4.92.41,8.1,8.1,0,0,0-1.81.51,18.06,18.06,0,0,1,0,1.81,3.39,3.39,0,0,0,1.75,3.36,1.78,1.78,0,0,1,.86,1.49c.07,1.49.87,2.84.89,4.27s1.11,2.6,1,4.07c0,.29.27.61.42.92.44.85.94,1.67,1.31,2.55a28.12,28.12,0,0,1,.9,2.73c.69,2.19,2.23,3.93,3.16,6a9.88,9.88,0,0,0,3.15,1.48,4.38,4.38,0,0,0,3.43-.73c.92-.72,2.14-.66,2.95-1.47,1.44.31,2.31-.84,3.42-1.35.94-.43,1.74-1.14,2.64-1.66a19.81,19.81,0,0,0,2.61-2.11,6.06,6.06,0,0,0,1.95-2.5,21.21,21.21,0,0,0,.6-2.41c.53-2.18,3-3.61,5.11-4.14.65-.17,1.07.26,1.58.45a1.4,1.4,0,0,1,.88,1.32c.08.58.6,1.07.83,1.64a10.08,10.08,0,0,1,.4,4.9,3.47,3.47,0,0,1-2.13,2.74,18.65,18.65,0,0,0-4.12,2.92c-1.58,1.26-3.13,2.59-4.8,3.75a13.29,13.29,0,0,0-2.51,1.93c-1.26,1.42-3,2.14-4.38,3.37-.41.37-.94.62-1.35,1a4.18,4.18,0,0,1-2.15,1.24,4.1,4.1,0,0,0-.91.46,20.94,20.94,0,0,1-3.72,1.68,9.06,9.06,0,0,1-3.52,0,7.24,7.24,0,0,1-2.21-1.06,4.06,4.06,0,0,1-1.36-1c-.56-.72-1.27-.59-2.06-.6-.19.77-.15,1.79-.64,2.32-.68.74-.3,1.62-.73,2.4a4.93,4.93,0,0,0-.57,3.09,10.86,10.86,0,0,1,0,2.21c-.07,3.19.73,6.34.48,9.55a3.14,3.14,0,0,0,.55,2,2.38,2.38,0,0,1,.29,1.66c0,.76-.4,1.12-1.21,1.15s-1.48,0-2.21,0a1.84,1.84,0,0,0-1.88,1.87c-.11,2.68.77,3.85,2.8,5.71s4.35,2.81,6.44,4.33c.46.33.62,1.37,1.56.92.53.51,1.07,1,1.57,1.54s1.18.14,1.73.72a7.71,7.71,0,0,0,2.81,1.69c.93.35,1.38,1.43,2.45,1.47.23.74,1.65-.19,1.52,1.07a3.38,3.38,0,0,1,1.85.91c.37.46,1.05.66,1.55,1s1.06,1,1.66,1.34a12.49,12.49,0,0,1,2.83,2.52c2.1,2.35,4.44,4.58,5.74,7.55a18.31,18.31,0,0,1,.9,2.95c.19.73.61,1.61.38,2.22a14.17,14.17,0,0,1-1.83,4.11c-.94,1.17-2,2.29-3,3.42a12.92,12.92,0,0,0-2.07,2.46c-.3.55-1,.85-1.47,1.36s-.71,1.26-1.57,1.29l-5.52,5.68a3.5,3.5,0,0,1-.52.5,5.43,5.43,0,0,0-1.93,2.21,6.93,6.93,0,0,1-1.09,1.54c-.75.81-1.56,1.57-2.39,2.41h-3a14.69,14.69,0,0,1-2-1.44,2.11,2.11,0,0,0-1.93-.73c-.29,0-.67.12-.87,0-.87-.58-1.62-.25-2.54-.08a6.23,6.23,0,0,0-2.27,1,30.26,30.26,0,0,1-3.1,1.6,10.45,10.45,0,0,0-4.4,3.6c-.46.73-.83,1.05-1.63,1a2.23,2.23,0,0,0-1,.18.71.71,0,0,0-.34.6c.39,1.46.31,3.06,1.23,4.35s1.16,2.69,2.33,3.7a10,10,0,0,1,1.57,2,13.5,13.5,0,0,1,.9,1.83,8.46,8.46,0,0,0,1.67,2.64c1,1,2.23,2.23,1.8,4.08-1.66.2-3.21.25-4.53-1.15a4.86,4.86,0,0,0-2-1,12.7,12.7,0,0,1-4.21-2.66c-.37-.31-.84-.5-1.22-.79a10.42,10.42,0,0,1-2.28-1.91c-.57-.83-1.5-1.18-2.06-2a1.54,1.54,0,0,0-1.27-.71c-.32,0-.59-.57-.93-.83-1-.76-2.06-1.49-3.06-2.22.41-1,.3-1.69-.34-1.72a1.76,1.76,0,0,1-1.86-1.45c-.18-1.07.65-1.85,1.42-2.47,1-.79,2.25-1.31,3-2.26a16.2,16.2,0,0,1,1.9-1.82,63.87,63.87,0,0,1,7.63-5.7c.71-.5.89-1.42,1.91-1.7a4.31,4.31,0,0,0,2.08-1.22c.32-.42.87-.58,1.05-1.05a2.85,2.85,0,0,1,1.43-1.45,12.79,12.79,0,0,0,1.93-1.76c.6-.54.82-1.37,1.68-1.74a10.05,10.05,0,0,0,2-1.53,1.75,1.75,0,0,0,.47-.47c.84-1.63,2.5-2.43,3.73-3.68a9.4,9.4,0,0,1,2-1.21,2.4,2.4,0,0,0-.57-2.27,4.33,4.33,0,0,0-2-1.41c-.65-.21-1.44.06-1.57-.94-2.43-1.18-4.94-2.22-7.67-1.71a7.43,7.43,0,0,0-3.42,1.81c-1.18,1.08-2.61,1.9-3.49,3.35a4.4,4.4,0,0,1-1.89,1.79c-.76.32-.67,1.24-1.57,1.49-.66.18-1.08,1.2-1.62,1.85-1,1.21-2.58,1.91-3.16,3.52-.05.14-.31.22-.49.29-1.28.44-1.74,1.7-2.59,2.57-.34.35-.56.81-.88,1.18a15.46,15.46,0,0,0-2.53,2.93c-.29.55-1,.9-1.46,1.35-1,.89-1.68,2-2.68,2.83a26.3,26.3,0,0,1-3,2.39,3.24,3.24,0,0,0-1.49,1.65c-.79,1.93-2.31,3.36-3.61,4.92-1,1.19-2.16,2.21-3.26,3.3-.67.66-1.17,1.46-1.79,2.1-.41.43-.2,1.28-1.13,1.42-.43.06-.74.93-1.13,1.41-.77.94-1.58,1.85-2.34,2.8a9.78,9.78,0,0,1-2.12,2.14,17.31,17.31,0,0,0-4,4.49c-.36.5-.52,1.15-.92,1.61-1.23,1.4-1.64,3.15-2.21,4.84A2.54,2.54,0,0,1-351.52,446.24Zm21.38-91.65a5.86,5.86,0,0,0,1.66-.55c.42-.32.6-.94,1-1.34.8-.87,1.66-1.68,2.5-2.51a2.56,2.56,0,0,0,1-2c-.3-2.84.49-5.61.48-8.44,0-1.78.27-3.56.42-5.34a.65.65,0,0,1,.11-.4c.86-.93.71-2.08.81-3.21a9.66,9.66,0,0,1,.75-2.34,7.69,7.69,0,0,0,.52-1.32,23.36,23.36,0,0,1,1.49-4.7,15.94,15.94,0,0,0,.71-3.56c-1.76-.28-2.5.68-3.08,1.94a26.86,26.86,0,0,0-1.35,2.75c-.34,1.08-1.42,1.52-1.79,2.59a14.88,14.88,0,0,1-1.68,2.62c-.36.58-.6,1.23-1,1.81s-1.19.94-1.35,1.89c-.1.6-1,1-1.21,1.65s-.94.89-.89,1.38c.07.83-.62,1.11-.86,1.66-.74,1.76-1.8,3.35-2.38,5.21a9.51,9.51,0,0,1-1.14,3,2.63,2.63,0,0,0-.52,1.92A56.12,56.12,0,0,1-330.14,354.59Z" transform="translate(456.31 -255.91)" fill="#fff"/><path d="M-400.43,313.2a22.7,22.7,0,0,1,6.09-3.84,9.09,9.09,0,0,1,4.3-.15,2.41,2.41,0,0,1,1.92,2.07c-.66,2-1.36,2.32-4.31,3.27-.24.81,0,1.28.82,1.67a19.66,19.66,0,0,1,3,1.88,8.34,8.34,0,0,0,4.86,1.65,5.89,5.89,0,0,1,5,3.12.91.91,0,0,1,0,1.2,5.36,5.36,0,0,0-.48,1.73c.3,0,.62.11.94.13a13,13,0,0,1,3.44.26c1,.37,2,.05,3.1.53,1.23.56,2.79.37,4.2.55.83.1,1.65.27,2.47.43s1.67-.27,2.51.39c.5.39,2.5-.83,2.78-1.77a3.1,3.1,0,0,1,1.79-1.84,4.7,4.7,0,0,0,2.21-2.41,1.36,1.36,0,0,1,1.38-1c1,0,1.22.55,1.43,1.27,2.31-.11,4.14-1.68,6.45-2.28.24,1.7-.82,2.57-2,3.79a11.51,11.51,0,0,0,1.61-.3,2.3,2.3,0,0,1,2.58.25,2,2,0,0,1,.54,2c0,.62-.49.82-1.07,1.1a43.1,43.1,0,0,0-4,2.42l3.58.72c.14,1.28.11,1.4-.83,1.67-2.57.72-5.13,1.52-7.69,2.28-1.24.37-2.48.81-3.75,1.09a19.25,19.25,0,0,1-3.5.59,17.31,17.31,0,0,0-6.06.89,4.66,4.66,0,0,1-1.54,0h-15a6.77,6.77,0,0,1,0,1.11,1.55,1.55,0,0,1-2.28,1.25,9,9,0,0,0-3.52-.61,2.32,2.32,0,0,0-2.14,1.62c-.69,1.66-.61,2.52.06,4.46,1.89,5.49,4.17,10.83,5.86,16.39.28.94,0,1.84.38,2.72a5.13,5.13,0,0,1,.76,2.56,5.29,5.29,0,0,0,.77,3,7.44,7.44,0,0,1,1,4,11.93,11.93,0,0,0,.41,2.69c.15.9-.36,1.88.41,2.72.18.2,0,.71,0,1.08,0,1,0,2.07,0,3.1a19.3,19.3,0,0,1-3.83,11.9c-.76,1.09-1.09,2.5-2.31,3.27-.24.15-.38.48-.63.61-2.33,1.16-2.82,3.4-2.92,5.6-.18,3.9-.09,7.82,0,11.73a25.54,25.54,0,0,1-.73,4.12c-.33,2.35-1.59,4.48-1.5,6.91-.85,1.5-.35,3.12-.43,4.69s0,3.24,0,4.86a1.08,1.08,0,0,0,.13.61c1.27,1.49,1.36,3.63,2.79,5.06a2.69,2.69,0,0,1,.48,1.33c.33,1.76,1.77,2.92,2.39,4.55.72,1.9-.13,3.6-2.1,3.76a13.73,13.73,0,0,1-7.21-1.31,11.06,11.06,0,0,1-4.84-4.68,20.27,20.27,0,0,0-2.52-3.83,6.59,6.59,0,0,1-.53-7.81,8.59,8.59,0,0,0,1.82-3.46,10.05,10.05,0,0,0,.28-1.41c0-1.18-.05-2.37,0-3.54a11.61,11.61,0,0,0-.74-4.13,1.47,1.47,0,0,1-.15-.59c.32-2.12-.52-4.14-.46-6.24s0-4.13,0-6.2a4.35,4.35,0,0,1,.33-1.18c.47-1.36.5-2.84,1.36-4.1.3-.44,0-1.26,0-1.94a6.49,6.49,0,0,0-2.57.34,12.39,12.39,0,0,1-7.78,0c-1.61-.57-3.26-1.08-4.87-1.56a11.62,11.62,0,0,0-5.25-.08,18.32,18.32,0,0,0-4.55,1.25l-.92.44c-2.13,1.09-4.32,2.05-6.46,3.1s-4.19,2-6.24,3.11a9.07,9.07,0,0,0-3.91,3.82,5.23,5.23,0,0,0-.78,1.44c-.11.84-.25,1.66-.4,2.48a4.27,4.27,0,0,0,.57,2.38c1.12,2.42.59,5,.63,7.46,0,.58-.65,1.18-1.07,1.89-.86-.14-1.82.25-2.79-.42a11.84,11.84,0,0,1-3.21-2.66c-.62-.86-.91-1.86-1.46-2.74s-.35-2.06-.75-3c-.66-1.55-.35-3.33-1.27-4.79-.14-.21,0-.58,0-.88v-6.67c1.1-2.27,3.11-2.56,4.87-3.17a11.88,11.88,0,0,0,3.44-1.88c2.63-2,4.75-4.52,7.16-6.74a11.5,11.5,0,0,1,2.23-1.57,5.42,5.42,0,0,0,1.67-1.7,9.46,9.46,0,0,1-1.54.24c-.4,0-.78-.26-1.18-.32a7.09,7.09,0,0,1-1.49-.16c-1.13-.5-2.38-.56-3.52-1.12a12.14,12.14,0,0,0-3.39-1.47c-.65-.1-1.24-1-1.74-1.62a18,18,0,0,1-2.16-3.08,11.41,11.41,0,0,1-1.2-3.69,17.72,17.72,0,0,1,.38-3.58c.18-1.76-.12-2.87-1.4-3.65-.64-.4-.87-1-1.32-1.46a2.94,2.94,0,0,1-.83-2.31,25,25,0,0,0,0-2.87,2.93,2.93,0,0,1,.95-2.27c2.06-2.11,4.11-4.23,6.27-6.24a32.91,32.91,0,0,1,3.71-2.78,2,2,0,0,1,1.13-.43c1.38,0,2.42-1,3.78-1.13.85-.11,1.6-1.09,2.5-1.75a49.11,49.11,0,0,1-1.72-4.71c-.3-1.14-1.18-2-1.17-3.3,0-.23-.26-.36-.08-.8,1-2.47,1.86-5,2.69-7.51a5.51,5.51,0,0,0-1.77-5.65,9.91,9.91,0,0,1-1.34-2.26,26.59,26.59,0,0,1,1.76-2.21c1.79-1.86,3.62-3.69,5.47-5.48.93-.89,2-1.63,2.92-2.53.63-.61,1.26-1.22,1.85-1.86a9,9,0,0,1,5.2-3,8.22,8.22,0,0,1,1.4-.31,11.11,11.11,0,0,0,5.2-.82c.51-.25,1.33.12,1.95.2l1.74-1.72s-.19-.51-.43-.55a3.5,3.5,0,0,0-2.05,0c-.81.44-1.58.09-2.34.25-1.29-1.14-2.66-.17-3.78.16-1.41.42-2.73.08-4.08.27a12,12,0,0,1-4,.36,13.37,13.37,0,0,0-3.37-.32,3,3,0,0,1-1.59-.48c-1.06-.56-1.14-1-.43-2s.67-1.6-.23-1.93-1.28-1.15-1.92-1.53a1.81,1.81,0,0,1,.9-2.31,3,3,0,0,0,1.61-1.79c-.85-.77-1.7-.61-2.65.07a3,3,0,0,1-3.54.19,2.41,2.41,0,0,1-1-3.08c.86-1.83,3.82-5.09,6.5-5.54-.76-2.24-3.16-1-4.4-2.15.05-1.31,0-1.4,1.07-1.62a10.65,10.65,0,0,0,4.82-2.74,2.33,2.33,0,0,1,3.07-.43c.26.15.68.05,1.08.07v-4.15a8.3,8.3,0,0,1,5.31-2.51c.59-.08,1.16-.22,1.75-.27.17,0,.37.16.54.28a6.18,6.18,0,0,1,2.41,2.65c.57.28.84-.69,1.72-.2a3.25,3.25,0,0,0,3.71-.77,7.94,7.94,0,0,1,5.53-2.17,11.56,11.56,0,0,1,5.29,1.18,23.35,23.35,0,0,0,3.82,1.42,6.92,6.92,0,0,1,2.83,1.75c.36.36.71.75,1.1,1.09a4,4,0,0,1,1.47,3.6,13.22,13.22,0,0,0,0,2,12.55,12.55,0,0,1-.86,4.95,5.94,5.94,0,0,0,0,5.13c1.19,2.7.38,4.88-1.32,7-.35.43-.87.9-.9,1.38-.1,1.44-1,2.28-1.91,3.21a6.23,6.23,0,0,0-.94,1.38C-401.54,312.15-401.52,312.17-400.43,313.2ZM-430,344.08h1a10,10,0,0,0,1.07-2c.2-.7.31-1.56-.84-2C-429.24,341.38-430.47,342.35-430,344.08Z" transform="translate(456.31 -255.91)" fill="#fff"/></svg>